<mxfile host="app.diagrams.net" modified="2024-03-20T20:31:22.308Z" agent="Mozilla/5.0 (Windows NT 10.0; Win64; x64; rv:123.0) Gecko/20100101 Firefox/123.0" etag="T96xF5aPoUz7NA33VTZ-" version="24.0.1" type="github">
  <diagram name="Page-1" id="LD6ZF_pfvdNjXgWhtU-o">
    <mxGraphModel dx="1434" dy="782" grid="1" gridSize="10" guides="1" tooltips="1" connect="1" arrows="1" fold="1" page="1" pageScale="1" pageWidth="850" pageHeight="1100" math="0" shadow="0">
      <root>
        <mxCell id="0" />
        <mxCell id="1" parent="0" />
        <mxCell id="nk9R049O57t78JMHlpcZ-1" value="" style="rounded=0;whiteSpace=wrap;html=1;" vertex="1" parent="1">
          <mxGeometry y="40" width="840" height="600" as="geometry" />
        </mxCell>
        <mxCell id="nk9R049O57t78JMHlpcZ-2" value="&lt;font style=&quot;font-size: 21px;&quot;&gt;Welcome to the Island of Taniti!&lt;/font&gt;" style="rounded=0;whiteSpace=wrap;html=1;" vertex="1" parent="1">
          <mxGeometry y="40" width="840" height="60" as="geometry" />
        </mxCell>
        <mxCell id="nk9R049O57t78JMHlpcZ-3" value="" style="rounded=0;whiteSpace=wrap;html=1;" vertex="1" parent="1">
          <mxGeometry y="100" width="840" height="70" as="geometry" />
        </mxCell>
        <mxCell id="nk9R049O57t78JMHlpcZ-9" value="" style="group" vertex="1" connectable="0" parent="1">
          <mxGeometry x="10" y="110" width="100" height="50" as="geometry" />
        </mxCell>
        <mxCell id="nk9R049O57t78JMHlpcZ-8" value="" style="rounded=1;whiteSpace=wrap;html=1;" vertex="1" parent="nk9R049O57t78JMHlpcZ-9">
          <mxGeometry width="100" height="50" as="geometry" />
        </mxCell>
        <mxCell id="nk9R049O57t78JMHlpcZ-5" value="Home" style="rounded=1;whiteSpace=wrap;html=1;" vertex="1" parent="nk9R049O57t78JMHlpcZ-9">
          <mxGeometry x="10" y="10" width="80" height="30" as="geometry" />
        </mxCell>
        <mxCell id="nk9R049O57t78JMHlpcZ-10" value="" style="group" vertex="1" connectable="0" parent="1">
          <mxGeometry x="120" y="110" width="100" height="50" as="geometry" />
        </mxCell>
        <mxCell id="nk9R049O57t78JMHlpcZ-11" value="" style="rounded=1;whiteSpace=wrap;html=1;" vertex="1" parent="nk9R049O57t78JMHlpcZ-10">
          <mxGeometry width="100" height="50" as="geometry" />
        </mxCell>
        <mxCell id="nk9R049O57t78JMHlpcZ-12" value="Lodging" style="rounded=1;whiteSpace=wrap;html=1;" vertex="1" parent="nk9R049O57t78JMHlpcZ-10">
          <mxGeometry x="10" y="10" width="80" height="30" as="geometry" />
        </mxCell>
        <mxCell id="nk9R049O57t78JMHlpcZ-13" value="" style="group" vertex="1" connectable="0" parent="1">
          <mxGeometry x="230" y="110" width="100" height="50" as="geometry" />
        </mxCell>
        <mxCell id="nk9R049O57t78JMHlpcZ-14" value="" style="rounded=1;whiteSpace=wrap;html=1;" vertex="1" parent="nk9R049O57t78JMHlpcZ-13">
          <mxGeometry width="100" height="50" as="geometry" />
        </mxCell>
        <mxCell id="nk9R049O57t78JMHlpcZ-15" value="Restaurants" style="rounded=1;whiteSpace=wrap;html=1;" vertex="1" parent="nk9R049O57t78JMHlpcZ-13">
          <mxGeometry x="10" y="10" width="80" height="30" as="geometry" />
        </mxCell>
        <mxCell id="nk9R049O57t78JMHlpcZ-16" value="" style="group" vertex="1" connectable="0" parent="1">
          <mxGeometry x="340" y="110" width="100" height="50" as="geometry" />
        </mxCell>
        <mxCell id="nk9R049O57t78JMHlpcZ-17" value="" style="rounded=1;whiteSpace=wrap;html=1;" vertex="1" parent="nk9R049O57t78JMHlpcZ-16">
          <mxGeometry width="100" height="50" as="geometry" />
        </mxCell>
        <mxCell id="nk9R049O57t78JMHlpcZ-18" value="Sightseeing" style="rounded=1;whiteSpace=wrap;html=1;" vertex="1" parent="nk9R049O57t78JMHlpcZ-16">
          <mxGeometry x="10" y="10" width="80" height="30" as="geometry" />
        </mxCell>
        <mxCell id="nk9R049O57t78JMHlpcZ-19" value="" style="group" vertex="1" connectable="0" parent="1">
          <mxGeometry x="450" y="110" width="100" height="50" as="geometry" />
        </mxCell>
        <mxCell id="nk9R049O57t78JMHlpcZ-20" value="" style="rounded=1;whiteSpace=wrap;html=1;" vertex="1" parent="nk9R049O57t78JMHlpcZ-19">
          <mxGeometry width="100" height="50" as="geometry" />
        </mxCell>
        <mxCell id="nk9R049O57t78JMHlpcZ-21" value="Entertainment" style="rounded=1;whiteSpace=wrap;html=1;" vertex="1" parent="nk9R049O57t78JMHlpcZ-19">
          <mxGeometry x="10" y="10" width="80" height="30" as="geometry" />
        </mxCell>
        <mxCell id="nk9R049O57t78JMHlpcZ-22" value="" style="group" vertex="1" connectable="0" parent="1">
          <mxGeometry x="560" y="110" width="100" height="50" as="geometry" />
        </mxCell>
        <mxCell id="nk9R049O57t78JMHlpcZ-23" value="" style="rounded=1;whiteSpace=wrap;html=1;" vertex="1" parent="nk9R049O57t78JMHlpcZ-22">
          <mxGeometry width="100" height="50" as="geometry" />
        </mxCell>
        <mxCell id="nk9R049O57t78JMHlpcZ-24" value="Transportation" style="rounded=1;whiteSpace=wrap;html=1;" vertex="1" parent="nk9R049O57t78JMHlpcZ-22">
          <mxGeometry x="10" y="10" width="80" height="30" as="geometry" />
        </mxCell>
        <mxCell id="nk9R049O57t78JMHlpcZ-25" value="" style="group" vertex="1" connectable="0" parent="1">
          <mxGeometry x="670" y="110" width="100" height="50" as="geometry" />
        </mxCell>
        <mxCell id="nk9R049O57t78JMHlpcZ-26" value="" style="rounded=1;whiteSpace=wrap;html=1;" vertex="1" parent="nk9R049O57t78JMHlpcZ-25">
          <mxGeometry width="100" height="50" as="geometry" />
        </mxCell>
        <mxCell id="nk9R049O57t78JMHlpcZ-27" value="Home" style="rounded=1;whiteSpace=wrap;html=1;" vertex="1" parent="nk9R049O57t78JMHlpcZ-25">
          <mxGeometry x="10" y="10" width="80" height="30" as="geometry" />
        </mxCell>
      </root>
    </mxGraphModel>
  </diagram>
</mxfile>
